<?xml version="1.0" encoding="utf-8"?>
<svg version="1.1" xmlns="http://www.w3.org/2000/svg" xmlns:xlink="http://www.w3.org/1999/xlink" x="0px" y="0px"
	 viewBox="0 0 970 180"   xml:space="preserve">
<g id="Слой_3">
	<g>
		<path class="st0" d="M266.1,54h14.2v92.3h-14.2v-21.3h-27.8L195,81.8V54h14.2v21.9l35,35h21.9V54z"/>
		<path class="st0" d="M294.9,32.5h14.2V54h52.8l18.4,18.3v52.8h-85.4V32.5z M356,68.1h-46.9v42.7h57V78.2L356,68.1z"/>
		<path class="st0" d="M480,125.1h-85.3V54H480v27.8l-29.1,29H480V125.1z M409,68.2v42.6h21.9l34.9-34.9v-7.7H409z"/>
		<path class="st0" d="M494.6,54h85.3v14.3h-71.1v56.8h-14.3V54z"/>
		<path class="st0" d="M644.2,68.1h-35.6v42.7h35.6v14.3h-49.8V32.6h14.2V54h35.6V68.1z"/>
		<path class="st0" d="M745.5,125.1h-85.3V54h85.3v27.8l-29.1,29h29.1V125.1z M674.4,68.2v42.6h21.9l34.9-34.9v-7.7H674.4z"/>
		<path class="st0" d="M838.2,54h7.2v14.3h-71.1v42.6h71.1v14.3H760V54H838.2z"/>
		<path class="st0" d="M874.1,54h52.7l18.3,18.4v52.7H931V78.2l-10.1-10h-46.9v56.8h-14.2V32.6h14.2V54z"/>
	</g>
</g>
<g id="Layer_1">
	<polyline class="st0" points="71,169.8 14.7,113.1 35.3,35.8 23.4,39 2.8,116.4 59.1,173 71,169.8 	"/>
	<path class="st0" d="M123.1,12.1L46.3,32.8l-20.6,77.4l56.2,56.6l76.8-20.7l20.6-77.4L123.1,12.1z M139.9,68.2H74.2v42.6h65.7v14.3
		H61V54h72.3h6.6V68.2z"/>
</g>
</svg>
